<svg width="800" height="400" viewBox="0 0 800 400" xmlns="http://www.w3.org/2000/svg"><mask id="satori_om-id"><rect x="0" y="0" width="800" height="400" fill="#fff"/></mask><rect x="0" y="0" width="800" height="400" fill="white"/><mask id="satori_om-id-0"><rect x="42" y="42" width="163" height="24" fill="#fff"/></mask><mask id="satori_om-id-0-0"><rect x="42" y="42" width="24" height="24" fill="#fff"/></mask><rect x="42" y="42" width="24" height="24" fill="black"/><mask id="satori_om-id-0-1"><rect x="74" y="42" width="131" height="24" fill="#fff"/></mask><g  ><path fill="black" d="M78.2 65.1L75.2 65.1L75.2 50.1L78.2 50.1L78.2 51.9L78.3 51.9Q78.5 51.5 78.9 51.0Q79.3 50.6 79.9 50.3Q80.5 49.9 81.4 49.9L81.4 49.9Q82.6 49.9 83.6 50.6Q84.6 51.2 85.2 52.4Q85.8 53.7 85.8 55.6L85.8 55.6Q85.8 57.4 85.3 58.6Q84.7 59.9 83.7 60.5Q82.7 61.2 81.4 61.2L81.4 61.2Q80.5 61.2 79.9 60.9Q79.3 60.6 78.9 60.2Q78.5 59.7 78.3 59.3L78.3 59.3L78.2 59.3L78.2 65.1ZM78.2 55.5L78.2 55.5Q78.2 56.5 78.4 57.2Q78.7 58.0 79.2 58.4Q79.7 58.8 80.5 58.8L80.5 58.8Q81.2 58.8 81.7 58.4Q82.2 58.0 82.5 57.2Q82.8 56.5 82.8 55.5L82.8 55.5Q82.8 54.6 82.5 53.9Q82.2 53.2 81.7 52.8Q81.2 52.4 80.5 52.4L80.5 52.4Q79.7 52.4 79.2 52.7Q78.7 53.1 78.4 53.9Q78.2 54.6 78.2 55.5ZM90.6 61L87.5 61L87.5 50.1L90.5 50.1L90.5 52.0L90.6 52.0Q90.9 51.0 91.6 50.5Q92.3 49.9 93.2 49.9L93.2 49.9Q93.4 49.9 93.7 50.0Q94.0 50.0 94.2 50.0L94.2 50.0L94.2 52.7Q93.9 52.7 93.6 52.6Q93.2 52.6 92.9 52.6L92.9 52.6Q92.2 52.6 91.7 52.9Q91.2 53.1 90.9 53.6Q90.6 54.2 90.6 54.8L90.6 54.8L90.6 61ZM98.4 61L95.4 61L95.4 50.1L98.4 50.1L98.4 61ZM96.9 48.7L96.9 48.7Q96.2 48.7 95.8 48.2Q95.3 47.8 95.3 47.2L95.3 47.2Q95.3 46.5 95.8 46.1Q96.2 45.6 96.9 45.6L96.9 45.6Q97.6 45.6 98.1 46.1Q98.5 46.5 98.5 47.2L98.5 47.2Q98.5 47.8 98.1 48.2Q97.6 48.7 96.9 48.7ZM102.4 65.1L102.4 65.1Q101.8 65.1 101.3 65.0Q100.8 64.9 100.5 64.8L100.5 64.8L101.2 62.5Q101.7 62.7 102.1 62.7Q102.5 62.7 102.9 62.5Q103.2 62.3 103.4 61.8L103.4 61.8L103.6 61.3L99.6 50.1L102.8 50.1L105.1 58.1L105.2 58.1L107.5 50.1L110.7 50.1L106.4 62.2Q106.1 63.1 105.6 63.7Q105.1 64.4 104.3 64.7Q103.5 65.1 102.4 65.1ZM114.7 61.2L114.7 61.2Q113.7 61.2 112.9 60.8Q112.0 60.5 111.6 59.8Q111.1 59.0 111.1 58.0L111.1 58.0Q111.1 57.0 111.4 56.4Q111.8 55.8 112.3 55.4Q112.9 55.1 113.6 54.9Q114.4 54.7 115.2 54.6L115.2 54.6Q116.1 54.5 116.7 54.4Q117.3 54.3 117.6 54.1Q117.8 54.0 117.8 53.6L117.8 53.6L117.8 53.6Q117.8 52.9 117.4 52.5Q117.0 52.2 116.2 52.2L116.2 52.2Q115.4 52.2 114.9 52.5Q114.4 52.9 114.3 53.4L114.3 53.4L111.5 53.2Q111.7 52.2 112.3 51.5Q112.9 50.7 113.9 50.3Q114.9 49.9 116.2 49.9L116.2 49.9Q117.1 49.9 118.0 50.2Q118.8 50.4 119.5 50.8Q120.1 51.3 120.5 52.0Q120.9 52.7 120.9 53.6L120.9 53.6L120.9 61L118.0 61L118.0 59.5L117.9 59.5Q117.6 60.0 117.2 60.4Q116.8 60.8 116.1 61.0Q115.5 61.2 114.7 61.2ZM115.6 59.1L115.6 59.1Q116.2 59.1 116.8 58.9Q117.3 58.6 117.6 58.1Q117.9 57.7 117.9 57.1L117.9 57.1L117.9 55.9Q117.7 56.0 117.5 56.1Q117.2 56.2 116.9 56.2Q116.6 56.3 116.3 56.4Q116.0 56.4 115.8 56.4L115.8 56.4Q115.2 56.5 114.8 56.7Q114.4 56.9 114.2 57.1Q114.0 57.4 114.0 57.9L114.0 57.9Q114.0 58.5 114.4 58.8Q114.9 59.1 115.6 59.1ZM125.9 54.7L125.9 54.7L125.9 61L122.9 61L122.9 50.1L125.8 50.1L125.8 52.0L125.9 52.0Q126.3 51.1 127.1 50.5Q128.0 49.9 129.2 49.9L129.2 49.9Q130.3 49.9 131.2 50.4Q132.0 50.9 132.5 51.9Q132.9 52.8 132.9 54.1L132.9 54.1L132.9 61L129.9 61L129.9 54.6Q129.9 53.6 129.4 53.0Q128.9 52.5 128.0 52.5L128.0 52.5Q127.4 52.5 126.9 52.7Q126.4 53.0 126.2 53.5Q125.9 54.0 125.9 54.7ZM134.4 50.1L137.5 50.1L139.5 53.9L141.6 50.1L144.7 50.1L141.5 55.5L144.8 61L141.7 61L139.5 57.2L137.4 61L134.3 61L137.5 55.5L134.4 50.1ZM149.2 54.7L149.2 54.7L149.2 61L146.2 61L146.2 46.5L149.1 46.5L149.1 52.0L149.2 52.0Q149.6 51.0 150.4 50.5Q151.2 49.9 152.5 49.9L152.5 49.9Q153.6 49.9 154.5 50.4Q155.3 50.9 155.8 51.9Q156.3 52.8 156.3 54.1L156.3 54.1L156.3 61L153.2 61L153.2 54.6Q153.2 53.6 152.7 53.0Q152.2 52.5 151.3 52.5L151.3 52.5Q150.7 52.5 150.2 52.7Q149.7 53.0 149.5 53.5Q149.2 54.0 149.2 54.7ZM165.3 56.4L165.3 56.4L165.3 50.1L168.4 50.1L168.4 61L165.4 61L165.4 59.0L165.3 59.0Q165.0 60.0 164.1 60.6Q163.3 61.1 162.0 61.1L162.0 61.1Q160.9 61.1 160.1 60.6Q159.3 60.1 158.8 59.2Q158.3 58.3 158.3 57.0L158.3 57.0L158.3 50.1L161.4 50.1L161.4 56.5Q161.4 57.5 161.9 58.0Q162.4 58.6 163.2 58.6L163.2 58.6Q163.8 58.6 164.3 58.3Q164.7 58.1 165.0 57.6Q165.3 57.1 165.3 56.4ZM172.2 61.2L172.2 61.2Q171.5 61.2 171.0 60.7Q170.5 60.2 170.5 59.5L170.5 59.5Q170.5 58.8 171.0 58.3Q171.5 57.8 172.2 57.8L172.2 57.8Q172.9 57.8 173.4 58.3Q173.9 58.8 173.9 59.5L173.9 59.5Q173.9 59.9 173.7 60.3Q173.4 60.7 173.1 61.0Q172.7 61.2 172.2 61.2ZM179.1 61L176.1 61L176.1 50.1L179.0 50.1L179.0 52.0L179.1 52.0Q179.4 51.1 180.2 50.5Q181.0 49.9 182.1 49.9L182.1 49.9Q183.3 49.9 184.0 50.5Q184.8 51.1 185.1 52.0L185.1 52.0L185.2 52.0Q185.5 51.1 186.4 50.5Q187.3 49.9 188.5 49.9L188.5 49.9Q190.0 49.9 191.0 50.9Q191.9 51.9 191.9 53.7L191.9 53.7L191.9 61L188.9 61L188.9 54.3Q188.9 53.4 188.4 52.9Q187.9 52.4 187.2 52.4L187.2 52.4Q186.4 52.4 185.9 53.0Q185.5 53.5 185.5 54.3L185.5 54.3L185.5 61L182.5 61L182.5 54.2Q182.5 53.4 182.1 52.9Q181.6 52.4 180.9 52.4L180.9 52.4Q180.4 52.4 180.0 52.7Q179.6 52.9 179.3 53.4Q179.1 53.8 179.1 54.5L179.1 54.5L179.1 61ZM199.0 61.2L199.0 61.2Q197.3 61.2 196.1 60.5Q194.9 59.8 194.2 58.6Q193.6 57.3 193.6 55.6L193.6 55.6Q193.6 53.9 194.2 52.6Q194.9 51.4 196.1 50.7Q197.2 49.9 198.8 49.9L198.8 49.9Q199.9 49.9 200.9 50.3Q201.8 50.6 202.5 51.3Q203.2 52.0 203.6 53.1Q204.0 54.1 204.0 55.5L204.0 55.5L204.0 56.3L194.8 56.3L194.8 54.4L201.1 54.4Q201.1 53.8 200.8 53.3Q200.6 52.8 200.1 52.5Q199.6 52.2 198.9 52.2L198.9 52.2Q198.2 52.2 197.7 52.5Q197.1 52.8 196.9 53.4Q196.6 53.9 196.5 54.5L196.5 54.5L196.5 56.3Q196.5 57.1 196.8 57.7Q197.1 58.3 197.7 58.6Q198.3 59.0 199.0 59.0L199.0 59.0Q199.5 59.0 199.9 58.8Q200.4 58.7 200.7 58.4Q201.0 58.1 201.1 57.7L201.1 57.7L203.9 57.9Q203.7 58.9 203.0 59.6Q202.4 60.4 201.4 60.8Q200.3 61.2 199.0 61.2Z "/></g><mask id="satori_om-id-1"><rect x="144" y="152" width="513" height="96" fill="#fff"/></mask><path x="144" y="152" width="513" height="96" fill="black" d="M164,152 h473 a20,20 0 0 1 20,20 v56 a20,20 0 0 1 -20,20 h-473 a20,20 0 0 1 -20,-20 v-56 a20,20 0 0 1 20,-20"/><g  ><path fill="white" d="M222.2 196.1L222.2 196.1L216.0 196.1Q215.8 194.9 215.3 193.9Q214.8 193.0 213.9 192.3Q213.1 191.7 212.0 191.3Q211.0 191.0 209.7 191.0L209.7 191.0Q207.5 191.0 205.8 192.1Q204.1 193.2 203.2 195.3Q202.3 197.4 202.3 200.5L202.3 200.5Q202.3 203.6 203.2 205.7Q204.1 207.8 205.8 208.9Q207.5 210.0 209.7 210.0L209.7 210.0Q210.9 210.0 212.0 209.6Q213.0 209.3 213.8 208.7Q214.7 208.0 215.2 207.1Q215.8 206.2 216.0 205.1L216.0 205.1L222.2 205.1Q222.0 207.1 221.0 208.9Q220.0 210.8 218.4 212.3Q216.8 213.7 214.6 214.6Q212.4 215.4 209.6 215.4L209.6 215.4Q205.7 215.4 202.6 213.6Q199.6 211.9 197.8 208.5Q196.0 205.2 196.0 200.5L196.0 200.5Q196.0 195.7 197.8 192.4Q199.6 189.0 202.7 187.3Q205.7 185.5 209.6 185.5L209.6 185.5Q212.1 185.5 214.3 186.2Q216.4 186.9 218.1 188.3Q219.8 189.6 220.8 191.6Q221.9 193.6 222.2 196.1ZM236.0 215.4L236.0 215.4Q232.7 215.4 230.3 214.0Q227.9 212.6 226.6 210.1Q225.3 207.5 225.3 204.2L225.3 204.2Q225.3 200.8 226.6 198.3Q227.9 195.7 230.3 194.3Q232.7 192.9 236.0 192.9L236.0 192.9Q239.3 192.9 241.8 194.3Q244.2 195.7 245.5 198.3Q246.8 200.8 246.8 204.2L246.8 204.2Q246.8 207.5 245.5 210.1Q244.2 212.6 241.8 214.0Q239.3 215.4 236.0 215.4ZM236.1 210.7L236.1 210.7Q237.6 210.7 238.6 209.9Q239.6 209.0 240.1 207.5Q240.6 206.0 240.6 204.1L240.6 204.1Q240.6 202.2 240.1 200.7Q239.6 199.2 238.6 198.4Q237.6 197.5 236.1 197.5L236.1 197.5Q234.5 197.5 233.5 198.4Q232.5 199.2 232.0 200.7Q231.4 202.2 231.4 204.1L231.4 204.1Q231.4 206.0 232.0 207.5Q232.5 209.0 233.5 209.9Q234.5 210.7 236.1 210.7ZM258.4 215.4L258.4 215.4Q256.0 215.4 253.9 214.1Q251.9 212.8 250.8 210.3Q249.6 207.8 249.6 204.1L249.6 204.1Q249.6 200.4 250.8 197.9Q252.0 195.4 254.0 194.1Q256.0 192.9 258.4 192.9L258.4 192.9Q260.3 192.9 261.5 193.5Q262.7 194.1 263.5 195.0Q264.2 196.0 264.6 196.8L264.6 196.8L264.8 196.8L264.8 185.9L270.9 185.9L270.9 215L264.9 215L264.9 211.5L264.6 211.5Q264.2 212.4 263.4 213.3Q262.7 214.2 261.4 214.8Q260.2 215.4 258.4 215.4ZM260.4 210.5L260.4 210.5Q261.8 210.5 262.8 209.7Q263.9 208.9 264.4 207.5Q265.0 206.0 265.0 204.1L265.0 204.1Q265.0 202.1 264.4 200.7Q263.9 199.3 262.8 198.5Q261.8 197.7 260.4 197.7L260.4 197.7Q258.9 197.7 257.8 198.5Q256.8 199.3 256.3 200.8Q255.8 202.2 255.8 204.1L255.8 204.1Q255.8 206.0 256.3 207.5Q256.8 208.9 257.9 209.7Q258.9 210.5 260.4 210.5ZM285.4 215.4L285.4 215.4Q282.1 215.4 279.7 214.1Q277.2 212.7 275.9 210.2Q274.6 207.6 274.6 204.2L274.6 204.2Q274.6 200.8 275.9 198.3Q277.2 195.7 279.6 194.3Q282.0 192.9 285.2 192.9L285.2 192.9Q287.4 192.9 289.2 193.6Q291.1 194.3 292.5 195.7Q293.9 197.0 294.7 199.1Q295.5 201.2 295.5 204.0L295.5 204.0L295.5 205.6L277.0 205.6L277.0 201.9L289.8 201.9Q289.8 200.6 289.2 199.6Q288.6 198.6 287.6 198.0Q286.6 197.4 285.3 197.4L285.3 197.4Q283.9 197.4 282.9 198.0Q281.8 198.7 281.2 199.7Q280.6 200.8 280.6 202.1L280.6 202.1L280.6 205.7Q280.6 207.3 281.2 208.5Q281.8 209.6 282.9 210.3Q284.0 210.9 285.5 210.9L285.5 210.9Q286.5 210.9 287.4 210.6Q288.2 210.3 288.8 209.8Q289.4 209.2 289.7 208.4L289.7 208.4L295.3 208.8Q294.9 210.8 293.6 212.3Q292.3 213.8 290.2 214.6Q288.1 215.4 285.4 215.4ZM302.6 215.4L302.6 215.4Q301.2 215.4 300.2 214.4Q299.2 213.4 299.2 212.0L299.2 212.0Q299.2 210.6 300.2 209.6Q301.2 208.6 302.6 208.6L302.6 208.6Q304.0 208.6 305.0 209.6Q306.0 210.6 306.0 212.0L306.0 212.0Q306.0 212.9 305.6 213.7Q305.1 214.4 304.3 214.9Q303.5 215.4 302.6 215.4Z M332.2 215L319.7 215L319.7 185.9L331.4 185.9Q334.6 185.9 336.7 186.9Q338.9 187.8 340.0 189.5Q341.0 191.2 341.0 193.4L341.0 193.4Q341.0 195.1 340.4 196.4Q339.7 197.6 338.5 198.5Q337.3 199.3 335.8 199.6L335.8 199.6L335.8 199.9Q337.4 200.0 338.9 200.8Q340.4 201.7 341.3 203.3Q342.2 204.8 342.2 207.0L342.2 207.0Q342.2 209.3 341.0 211.1Q339.9 212.9 337.7 213.9Q335.4 215 332.2 215L332.2 215ZM325.9 202.2L325.9 210.0L330.9 210.0Q333.5 210.0 334.7 209.0Q335.8 208.0 335.8 206.3L335.8 206.3Q335.8 205.1 335.2 204.2Q334.7 203.3 333.6 202.8Q332.5 202.2 331.0 202.2L331.0 202.2L325.9 202.2ZM325.9 190.9L325.9 198.1L330.4 198.1Q331.7 198.1 332.7 197.6Q333.7 197.2 334.3 196.4Q334.8 195.5 334.8 194.4L334.8 194.4Q334.8 192.8 333.7 191.8Q332.6 190.9 330.6 190.9L330.6 190.9L325.9 190.9ZM351.8 215L345.7 215L345.7 193.2L351.6 193.2L351.6 197.0L351.8 197.0Q352.4 195.0 353.8 193.9Q355.2 192.9 357.1 192.9L357.1 192.9Q357.5 192.9 358.1 192.9Q358.6 193.0 359.0 193.1L359.0 193.1L359.0 198.5Q358.5 198.3 357.8 198.2Q357.0 198.1 356.4 198.1L356.4 198.1Q355.1 198.1 354.0 198.7Q353.0 199.3 352.4 200.3Q351.8 201.3 351.8 202.7L351.8 202.7L351.8 215ZM370.7 215.4L370.7 215.4Q367.3 215.4 364.9 214.1Q362.5 212.7 361.2 210.2Q359.9 207.6 359.9 204.2L359.9 204.2Q359.9 200.8 361.2 198.3Q362.5 195.7 364.9 194.3Q367.2 192.9 370.4 192.9L370.4 192.9Q372.6 192.9 374.5 193.6Q376.3 194.3 377.7 195.7Q379.1 197.0 379.9 199.1Q380.7 201.2 380.7 204.0L380.7 204.0L380.7 205.6L362.3 205.6L362.3 201.9L375.0 201.9Q375.0 200.6 374.4 199.6Q373.9 198.6 372.9 198.0Q371.9 197.4 370.5 197.4L370.5 197.4Q369.2 197.4 368.1 198.0Q367.1 198.7 366.5 199.7Q365.9 200.8 365.8 202.1L365.8 202.1L365.8 205.7Q365.8 207.3 366.4 208.5Q367.1 209.6 368.2 210.3Q369.3 210.9 370.8 210.9L370.8 210.9Q371.8 210.9 372.6 210.6Q373.5 210.3 374.1 209.8Q374.7 209.2 375.0 208.4L375.0 208.4L380.6 208.8Q380.1 210.8 378.8 212.3Q377.5 213.8 375.5 214.6Q373.4 215.4 370.7 215.4ZM390.6 215.4L390.6 215.4Q388.5 215.4 386.8 214.7Q385.2 213.9 384.3 212.5Q383.3 211.1 383.3 208.9L383.3 208.9Q383.3 207.1 384.0 205.9Q384.6 204.6 385.8 203.9Q386.9 203.1 388.4 202.7Q389.9 202.3 391.5 202.2L391.5 202.2Q393.4 202.0 394.6 201.8Q395.7 201.6 396.3 201.3Q396.8 200.9 396.8 200.2L396.8 200.2L396.8 200.1Q396.8 198.8 395.9 198.1Q395.1 197.3 393.5 197.3L393.5 197.3Q391.9 197.3 390.9 198.0Q390.0 198.8 389.7 199.8L389.7 199.8L384.1 199.4Q384.5 197.4 385.8 195.9Q387.0 194.5 389.0 193.7Q391.0 192.9 393.6 192.9L393.6 192.9Q395.4 192.9 397.1 193.3Q398.7 193.8 400.0 194.6Q401.3 195.5 402.1 196.9Q402.8 198.3 402.8 200.3L402.8 200.3L402.8 215L397.1 215L397.1 212.0L396.9 212.0Q396.4 213.0 395.5 213.8Q394.6 214.5 393.4 215.0Q392.2 215.4 390.6 215.4ZM392.3 211.2L392.3 211.2Q393.6 211.2 394.6 210.7Q395.7 210.2 396.2 209.3Q396.8 208.4 396.8 207.2L396.8 207.2L396.8 204.9Q396.5 205.1 396.1 205.2Q395.6 205.4 395.0 205.5Q394.3 205.6 393.7 205.7Q393.1 205.8 392.6 205.9L392.6 205.9Q391.6 206.0 390.8 206.4Q390.0 206.7 389.5 207.3Q389.1 207.9 389.1 208.7L389.1 208.7Q389.1 209.9 390.0 210.6Q390.9 211.2 392.3 211.2ZM416.7 204.1L412.7 208.7L412.7 201.5L413.6 201.5L420.6 193.2L427.5 193.2L418.1 204.1L416.7 204.1ZM413.3 215L407.2 215L407.2 185.9L413.3 185.9L413.3 215ZM427.9 215L420.9 215L414.4 205.5L418.5 201.2L427.9 215ZM433.7 215.4L433.7 215.4Q432.3 215.4 431.3 214.4Q430.3 213.4 430.3 212.0L430.3 212.0Q430.3 210.6 431.3 209.6Q432.3 208.6 433.7 208.6L433.7 208.6Q435.1 208.6 436.1 209.6Q437.1 210.6 437.1 212.0L437.1 212.0Q437.1 212.9 436.6 213.7Q436.2 214.4 435.4 214.9Q434.6 215.4 433.7 215.4Z M458.0 215L451.8 215L451.8 185.9L463.3 185.9Q466.6 185.9 469.0 187.1Q471.3 188.3 472.5 190.4Q473.7 192.5 473.7 195.4L473.7 195.4Q473.7 198.3 472.5 200.4Q471.2 202.5 468.9 203.6Q466.5 204.7 463.2 204.7L463.2 204.7L455.5 204.7L455.5 199.7L462.2 199.7Q463.9 199.7 465.1 199.3Q466.3 198.8 466.8 197.8Q467.4 196.8 467.4 195.4L467.4 195.4Q467.4 194.0 466.8 193.0Q466.3 192.0 465.1 191.5Q463.9 190.9 462.1 190.9L462.1 190.9L458.0 190.9L458.0 215ZM460.9 201.8L467.6 201.8L474.8 215L468.0 215L460.9 201.8ZM487.2 215.4L487.2 215.4Q483.9 215.4 481.4 214.1Q479.0 212.7 477.7 210.2Q476.4 207.6 476.4 204.2L476.4 204.2Q476.4 200.8 477.7 198.3Q479.0 195.7 481.4 194.3Q483.8 192.9 487.0 192.9L487.0 192.9Q489.2 192.9 491.0 193.6Q492.9 194.3 494.3 195.7Q495.7 197.0 496.5 199.1Q497.2 201.2 497.2 204.0L497.2 204.0L497.2 205.6L478.8 205.6L478.8 201.9L491.6 201.9Q491.6 200.6 491.0 199.6Q490.4 198.6 489.4 198.0Q488.4 197.4 487.1 197.4L487.1 197.4Q485.7 197.4 484.7 198.0Q483.6 198.7 483.0 199.7Q482.4 200.8 482.4 202.1L482.4 202.1L482.4 205.7Q482.4 207.3 483.0 208.5Q483.6 209.6 484.7 210.3Q485.8 210.9 487.3 210.9L487.3 210.9Q488.3 210.9 489.2 210.6Q490.0 210.3 490.6 209.8Q491.2 209.2 491.5 208.4L491.5 208.4L497.1 208.8Q496.7 210.8 495.4 212.3Q494.1 213.8 492.0 214.6Q489.9 215.4 487.2 215.4ZM507.0 215L501.0 215L501.0 185.9L507.0 185.9L507.0 196.8L507.2 196.8Q507.6 196.0 508.4 195.0Q509.1 194.1 510.4 193.5Q511.6 192.9 513.4 192.9L513.4 192.9Q515.8 192.9 517.8 194.1Q519.9 195.4 521.1 197.9Q522.3 200.4 522.3 204.1L522.3 204.1Q522.3 207.8 521.1 210.3Q519.9 212.8 517.9 214.1Q515.9 215.4 513.4 215.4L513.4 215.4Q511.7 215.4 510.4 214.8Q509.2 214.2 508.4 213.3Q507.6 212.4 507.2 211.5L507.2 211.5L507.0 211.5L507.0 215ZM506.9 204.1L506.9 204.1Q506.9 206.0 507.5 207.5Q508.0 208.9 509.0 209.7Q510.0 210.5 511.5 210.5L511.5 210.5Q513.0 210.5 514.0 209.7Q515.0 208.9 515.6 207.5Q516.1 206.0 516.1 204.1L516.1 204.1Q516.1 202.2 515.6 200.8Q515.0 199.3 514.0 198.5Q513.0 197.7 511.5 197.7L511.5 197.7Q510.0 197.7 509.0 198.5Q508.0 199.3 507.5 200.7Q506.9 202.1 506.9 204.1ZM540.0 205.7L540.0 205.7L540.0 193.2L546.0 193.2L546.0 215L540.2 215L540.2 211.0L540.0 211.0Q539.2 213.0 537.5 214.1Q535.8 215.3 533.4 215.3L533.4 215.3Q531.2 215.3 529.5 214.3Q527.8 213.3 526.9 211.5Q526.0 209.6 526.0 207.1L526.0 207.1L526.0 193.2L532.0 193.2L532.0 206.0Q532.0 207.9 533.1 209.0Q534.1 210.2 535.8 210.2L535.8 210.2Q536.9 210.2 537.8 209.7Q538.8 209.2 539.4 208.2Q540.0 207.2 540.0 205.7ZM556.6 215L550.5 215L550.5 193.2L556.6 193.2L556.6 215ZM553.6 190.4L553.6 190.4Q552.2 190.4 551.3 189.5Q550.3 188.6 550.3 187.3L550.3 187.3Q550.3 186.1 551.3 185.1Q552.2 184.2 553.6 184.2L553.6 184.2Q554.9 184.2 555.9 185.1Q556.8 186.1 556.8 187.3L556.8 187.3Q556.8 188.6 555.9 189.5Q554.9 190.4 553.6 190.4ZM561.1 185.9L567.1 185.9L567.1 215L561.1 215L561.1 185.9ZM579.7 215.4L579.7 215.4Q577.2 215.4 575.2 214.1Q573.2 212.8 572.0 210.3Q570.8 207.8 570.8 204.1L570.8 204.1Q570.8 200.4 572.0 197.9Q573.2 195.4 575.3 194.1Q577.3 192.9 579.7 192.9L579.7 192.9Q581.5 192.9 582.7 193.5Q584.0 194.1 584.7 195.0Q585.5 196.0 585.9 196.8L585.9 196.8L586.1 196.8L586.1 185.9L592.1 185.9L592.1 215L586.1 215L586.1 211.5L585.9 211.5Q585.4 212.4 584.7 213.3Q583.9 214.2 582.7 214.8Q581.4 215.4 579.7 215.4ZM581.6 210.5L581.6 210.5Q583.1 210.5 584.1 209.7Q585.1 208.9 585.6 207.5Q586.2 206.0 586.2 204.1L586.2 204.1Q586.2 202.1 585.6 200.7Q585.1 199.3 584.1 198.5Q583.1 197.7 581.6 197.7L581.6 197.7Q580.1 197.7 579.1 198.5Q578.1 199.3 577.5 200.8Q577.0 202.2 577.0 204.1L577.0 204.1Q577.0 206.0 577.5 207.5Q578.1 208.9 579.1 209.7Q580.1 210.5 581.6 210.5ZM600.3 215.4L600.3 215.4Q598.9 215.4 597.9 214.4Q596.9 213.4 596.9 212.0L596.9 212.0Q596.9 210.6 597.9 209.6Q598.9 208.6 600.3 208.6L600.3 208.6Q601.6 208.6 602.7 209.6Q603.7 210.6 603.7 212.0L603.7 212.0Q603.7 212.9 603.2 213.7Q602.7 214.4 602.0 214.9Q601.2 215.4 600.3 215.4Z "/></g></svg>